<mxfile host="Electron" agent="Mozilla/5.0 (Windows NT 10.0; Win64; x64) AppleWebKit/537.36 (KHTML, like Gecko) draw.io/28.2.5 Chrome/138.0.7204.251 Electron/37.6.1 Safari/537.36" version="28.2.5">
  <diagram name="Page-1" id="W1ses-b2Y4wNjFQiZjHS">
    <mxGraphModel dx="1683" dy="686" grid="1" gridSize="10" guides="1" tooltips="1" connect="1" arrows="1" fold="1" page="1" pageScale="1" pageWidth="2000" pageHeight="2000" math="0" shadow="0">
      <root>
        <mxCell id="0" />
        <mxCell id="1" parent="0" />
        <mxCell id="iTJKMhDCjFDiyRqTUcVc-57" style="edgeStyle=orthogonalEdgeStyle;rounded=0;orthogonalLoop=1;jettySize=auto;html=1;exitX=0.5;exitY=0;exitDx=0;exitDy=0;" edge="1" parent="1" source="iTJKMhDCjFDiyRqTUcVc-1" target="iTJKMhDCjFDiyRqTUcVc-56">
          <mxGeometry relative="1" as="geometry">
            <mxPoint x="635.2857142857142" y="750" as="targetPoint" />
            <Array as="points">
              <mxPoint x="670" y="869" />
              <mxPoint x="670" y="730" />
              <mxPoint x="835" y="730" />
            </Array>
          </mxGeometry>
        </mxCell>
        <mxCell id="iTJKMhDCjFDiyRqTUcVc-1" value="Head Server" style="rounded=1;whiteSpace=wrap;html=1;absoluteArcSize=1;arcSize=14;strokeWidth=2;" vertex="1" parent="1">
          <mxGeometry x="575" y="868.75" width="120" height="60" as="geometry" />
        </mxCell>
        <mxCell id="iTJKMhDCjFDiyRqTUcVc-62" style="edgeStyle=orthogonalEdgeStyle;rounded=0;orthogonalLoop=1;jettySize=auto;html=1;exitX=1;exitY=0.75;exitDx=0;exitDy=0;entryX=0.238;entryY=0.101;entryDx=0;entryDy=0;entryPerimeter=0;" edge="1" parent="1" source="iTJKMhDCjFDiyRqTUcVc-2" target="iTJKMhDCjFDiyRqTUcVc-61">
          <mxGeometry relative="1" as="geometry">
            <mxPoint x="1120" y="580.2857142857142" as="targetPoint" />
            <Array as="points">
              <mxPoint x="1100" y="640" />
              <mxPoint x="1200" y="640" />
            </Array>
          </mxGeometry>
        </mxCell>
        <mxCell id="iTJKMhDCjFDiyRqTUcVc-73" style="edgeStyle=orthogonalEdgeStyle;rounded=0;orthogonalLoop=1;jettySize=auto;html=1;exitX=0.5;exitY=0;exitDx=0;exitDy=0;entryX=0;entryY=0.5;entryDx=0;entryDy=0;" edge="1" parent="1" source="iTJKMhDCjFDiyRqTUcVc-2" target="iTJKMhDCjFDiyRqTUcVc-72">
          <mxGeometry relative="1" as="geometry" />
        </mxCell>
        <mxCell id="iTJKMhDCjFDiyRqTUcVc-2" value="Client" style="rounded=1;whiteSpace=wrap;html=1;absoluteArcSize=1;arcSize=14;strokeWidth=2;" vertex="1" parent="1">
          <mxGeometry x="980" y="535" width="120" height="60" as="geometry" />
        </mxCell>
        <mxCell id="iTJKMhDCjFDiyRqTUcVc-3" value="API Key" style="shape=parallelogram;html=1;strokeWidth=2;perimeter=parallelogramPerimeter;whiteSpace=wrap;rounded=1;arcSize=12;size=0.23;" vertex="1" parent="1">
          <mxGeometry x="1120" y="760" width="100" height="60" as="geometry" />
        </mxCell>
        <mxCell id="iTJKMhDCjFDiyRqTUcVc-6" value="API Key Validation" style="rounded=1;whiteSpace=wrap;html=1;absoluteArcSize=1;arcSize=14;strokeWidth=2;" vertex="1" parent="1">
          <mxGeometry x="900" y="765" width="150" height="50" as="geometry" />
        </mxCell>
        <mxCell id="iTJKMhDCjFDiyRqTUcVc-7" value="Start Client" style="strokeWidth=2;html=1;shape=mxgraph.flowchart.start_2;whiteSpace=wrap;" vertex="1" parent="1">
          <mxGeometry x="1135" y="530" width="70" height="70" as="geometry" />
        </mxCell>
        <mxCell id="iTJKMhDCjFDiyRqTUcVc-8" style="edgeStyle=orthogonalEdgeStyle;rounded=0;orthogonalLoop=1;jettySize=auto;html=1;entryX=0.5;entryY=0;entryDx=0;entryDy=0;entryPerimeter=0;" edge="1" parent="1" source="iTJKMhDCjFDiyRqTUcVc-7" target="iTJKMhDCjFDiyRqTUcVc-30">
          <mxGeometry relative="1" as="geometry">
            <mxPoint x="1230" y="794" as="targetPoint" />
            <Array as="points">
              <mxPoint x="1170" y="630" />
              <mxPoint x="1350" y="630" />
            </Array>
          </mxGeometry>
        </mxCell>
        <mxCell id="iTJKMhDCjFDiyRqTUcVc-15" value="" style="edgeStyle=orthogonalEdgeStyle;rounded=0;orthogonalLoop=1;jettySize=auto;html=1;" edge="1" parent="1" source="iTJKMhDCjFDiyRqTUcVc-12">
          <mxGeometry relative="1" as="geometry">
            <mxPoint x="500" y="700" as="targetPoint" />
          </mxGeometry>
        </mxCell>
        <mxCell id="iTJKMhDCjFDiyRqTUcVc-12" value="Global PPO Model Rollout" style="html=1;dashed=0;whiteSpace=wrap;shape=mxgraph.dfd.loop" vertex="1" parent="1">
          <mxGeometry x="580" y="677.5" width="110" height="45" as="geometry" />
        </mxCell>
        <mxCell id="iTJKMhDCjFDiyRqTUcVc-13" style="edgeStyle=orthogonalEdgeStyle;rounded=0;orthogonalLoop=1;jettySize=auto;html=1;" edge="1" parent="1" source="iTJKMhDCjFDiyRqTUcVc-1" target="iTJKMhDCjFDiyRqTUcVc-12">
          <mxGeometry relative="1" as="geometry">
            <Array as="points">
              <mxPoint x="700" y="960" />
              <mxPoint x="700" y="700" />
            </Array>
          </mxGeometry>
        </mxCell>
        <mxCell id="iTJKMhDCjFDiyRqTUcVc-17" style="edgeStyle=orthogonalEdgeStyle;rounded=0;orthogonalLoop=1;jettySize=auto;html=1;" edge="1" parent="1" source="iTJKMhDCjFDiyRqTUcVc-16">
          <mxGeometry relative="1" as="geometry">
            <mxPoint x="450" y="600" as="targetPoint" />
          </mxGeometry>
        </mxCell>
        <mxCell id="iTJKMhDCjFDiyRqTUcVc-16" value="Delay for sending out global model" style="strokeWidth=2;html=1;shape=mxgraph.flowchart.delay;whiteSpace=wrap;" vertex="1" parent="1">
          <mxGeometry x="400" y="670" width="100" height="60" as="geometry" />
        </mxCell>
        <mxCell id="iTJKMhDCjFDiyRqTUcVc-18" value="Global PPO Model" style="shape=parallelogram;html=1;strokeWidth=2;perimeter=parallelogramPerimeter;whiteSpace=wrap;rounded=1;arcSize=12;size=0.23;" vertex="1" parent="1">
          <mxGeometry x="410" y="540" width="100" height="60" as="geometry" />
        </mxCell>
        <mxCell id="iTJKMhDCjFDiyRqTUcVc-26" style="edgeStyle=orthogonalEdgeStyle;rounded=0;orthogonalLoop=1;jettySize=auto;html=1;exitX=0.5;exitY=0;exitDx=0;exitDy=0;exitPerimeter=0;" edge="1" parent="1" source="iTJKMhDCjFDiyRqTUcVc-24" target="iTJKMhDCjFDiyRqTUcVc-27">
          <mxGeometry relative="1" as="geometry">
            <mxPoint x="950" y="730" as="targetPoint" />
            <Array as="points">
              <mxPoint x="830" y="750" />
              <mxPoint x="975" y="750" />
            </Array>
          </mxGeometry>
        </mxCell>
        <mxCell id="iTJKMhDCjFDiyRqTUcVc-29" value="No" style="edgeLabel;html=1;align=center;verticalAlign=middle;resizable=0;points=[];" vertex="1" connectable="0" parent="iTJKMhDCjFDiyRqTUcVc-26">
          <mxGeometry x="-0.1399" y="-1" relative="1" as="geometry">
            <mxPoint as="offset" />
          </mxGeometry>
        </mxCell>
        <mxCell id="iTJKMhDCjFDiyRqTUcVc-35" style="edgeStyle=orthogonalEdgeStyle;rounded=0;orthogonalLoop=1;jettySize=auto;html=1;exitX=0;exitY=0.5;exitDx=0;exitDy=0;exitPerimeter=0;entryX=0.4;entryY=1;entryDx=0;entryDy=0;entryPerimeter=0;" edge="1" parent="1" source="iTJKMhDCjFDiyRqTUcVc-24" target="iTJKMhDCjFDiyRqTUcVc-16">
          <mxGeometry relative="1" as="geometry">
            <mxPoint x="440" y="790" as="targetPoint" />
          </mxGeometry>
        </mxCell>
        <mxCell id="iTJKMhDCjFDiyRqTUcVc-36" value="Yes" style="edgeLabel;html=1;align=center;verticalAlign=middle;resizable=0;points=[];" vertex="1" connectable="0" parent="iTJKMhDCjFDiyRqTUcVc-35">
          <mxGeometry x="-0.202" y="-1" relative="1" as="geometry">
            <mxPoint as="offset" />
          </mxGeometry>
        </mxCell>
        <mxCell id="iTJKMhDCjFDiyRqTUcVc-45" style="edgeStyle=orthogonalEdgeStyle;rounded=0;orthogonalLoop=1;jettySize=auto;html=1;exitX=0;exitY=0.5;exitDx=0;exitDy=0;exitPerimeter=0;" edge="1" parent="1" source="iTJKMhDCjFDiyRqTUcVc-24" target="iTJKMhDCjFDiyRqTUcVc-43">
          <mxGeometry relative="1" as="geometry" />
        </mxCell>
        <mxCell id="iTJKMhDCjFDiyRqTUcVc-24" value="Valid?" style="strokeWidth=2;html=1;shape=mxgraph.flowchart.decision;whiteSpace=wrap;" vertex="1" parent="1">
          <mxGeometry x="800" y="765" width="60" height="50" as="geometry" />
        </mxCell>
        <mxCell id="iTJKMhDCjFDiyRqTUcVc-25" style="edgeStyle=orthogonalEdgeStyle;rounded=0;orthogonalLoop=1;jettySize=auto;html=1;entryX=1;entryY=0.5;entryDx=0;entryDy=0;entryPerimeter=0;" edge="1" parent="1" source="iTJKMhDCjFDiyRqTUcVc-6" target="iTJKMhDCjFDiyRqTUcVc-24">
          <mxGeometry relative="1" as="geometry" />
        </mxCell>
        <mxCell id="iTJKMhDCjFDiyRqTUcVc-27" value="End Client" style="strokeWidth=2;html=1;shape=mxgraph.flowchart.terminator;whiteSpace=wrap;" vertex="1" parent="1">
          <mxGeometry x="925" y="670" width="100" height="60" as="geometry" />
        </mxCell>
        <mxCell id="iTJKMhDCjFDiyRqTUcVc-30" value="API Key File" style="strokeWidth=2;html=1;shape=mxgraph.flowchart.document2;whiteSpace=wrap;size=0.25;" vertex="1" parent="1">
          <mxGeometry x="1300" y="755" width="100" height="60" as="geometry" />
        </mxCell>
        <mxCell id="iTJKMhDCjFDiyRqTUcVc-32" value="" style="verticalLabelPosition=bottom;verticalAlign=top;html=1;strokeWidth=2;shape=mxgraph.arrows2.arrow;dy=0.6;dx=40;notch=0;rotation=-180;" vertex="1" parent="1">
          <mxGeometry x="1215" y="770" width="80" height="40" as="geometry" />
        </mxCell>
        <mxCell id="iTJKMhDCjFDiyRqTUcVc-34" value="" style="verticalLabelPosition=bottom;verticalAlign=top;html=1;strokeWidth=2;shape=mxgraph.arrows2.arrow;dy=0.6;dx=40;notch=0;rotation=0;" vertex="1" parent="1">
          <mxGeometry x="510" y="550" width="460" height="40" as="geometry" />
        </mxCell>
        <mxCell id="iTJKMhDCjFDiyRqTUcVc-37" value="" style="verticalLabelPosition=bottom;verticalAlign=top;html=1;strokeWidth=2;shape=mxgraph.arrows2.arrow;dy=0.6;dx=40;notch=0;rotation=-180;" vertex="1" parent="1">
          <mxGeometry x="1050" y="770" width="70" height="40" as="geometry" />
        </mxCell>
        <mxCell id="iTJKMhDCjFDiyRqTUcVc-38" value="API Key DB" style="strokeWidth=2;html=1;shape=mxgraph.flowchart.database;whiteSpace=wrap;" vertex="1" parent="1">
          <mxGeometry x="945" y="880" width="60" height="80" as="geometry" />
        </mxCell>
        <mxCell id="iTJKMhDCjFDiyRqTUcVc-39" value="" style="verticalLabelPosition=bottom;verticalAlign=top;html=1;strokeWidth=2;shape=mxgraph.arrows2.arrow;dy=0.6;dx=40;notch=0;rotation=-90;" vertex="1" parent="1">
          <mxGeometry x="946.25" y="828.75" width="57.5" height="40" as="geometry" />
        </mxCell>
        <mxCell id="iTJKMhDCjFDiyRqTUcVc-40" value="" style="strokeWidth=2;html=1;shape=mxgraph.flowchart.annotation_2;align=left;labelPosition=right;pointerEvents=1;rotation=90;" vertex="1" parent="1">
          <mxGeometry x="707.5" y="267.5" width="50" height="445" as="geometry" />
        </mxCell>
        <mxCell id="iTJKMhDCjFDiyRqTUcVc-41" value="Overrides prior gradients (maybe?) and prior model." style="text;html=1;align=center;verticalAlign=middle;resizable=0;points=[];autosize=1;strokeColor=none;fillColor=none;" vertex="1" parent="1">
          <mxGeometry x="582.5" y="428" width="300" height="30" as="geometry" />
        </mxCell>
        <mxCell id="iTJKMhDCjFDiyRqTUcVc-42" value="Start Server" style="strokeWidth=2;html=1;shape=mxgraph.flowchart.start_2;whiteSpace=wrap;" vertex="1" parent="1">
          <mxGeometry x="380" y="863.75" width="70" height="70" as="geometry" />
        </mxCell>
        <mxCell id="iTJKMhDCjFDiyRqTUcVc-44" style="edgeStyle=orthogonalEdgeStyle;rounded=0;orthogonalLoop=1;jettySize=auto;html=1;exitX=0;exitY=0.5;exitDx=0;exitDy=0;entryX=1;entryY=0.5;entryDx=0;entryDy=0;" edge="1" parent="1" source="iTJKMhDCjFDiyRqTUcVc-43" target="iTJKMhDCjFDiyRqTUcVc-1">
          <mxGeometry relative="1" as="geometry" />
        </mxCell>
        <mxCell id="iTJKMhDCjFDiyRqTUcVc-53" style="edgeStyle=orthogonalEdgeStyle;rounded=0;orthogonalLoop=1;jettySize=auto;html=1;exitX=0.5;exitY=1;exitDx=0;exitDy=0;" edge="1" parent="1" source="iTJKMhDCjFDiyRqTUcVc-43" target="iTJKMhDCjFDiyRqTUcVc-52">
          <mxGeometry relative="1" as="geometry" />
        </mxCell>
        <mxCell id="iTJKMhDCjFDiyRqTUcVc-43" value="Init Client" style="rounded=1;whiteSpace=wrap;html=1;absoluteArcSize=1;arcSize=14;strokeWidth=2;" vertex="1" parent="1">
          <mxGeometry x="730" y="878.13" width="100" height="41.25" as="geometry" />
        </mxCell>
        <mxCell id="iTJKMhDCjFDiyRqTUcVc-49" style="edgeStyle=orthogonalEdgeStyle;rounded=0;orthogonalLoop=1;jettySize=auto;html=1;exitX=1;exitY=0.5;exitDx=0;exitDy=0;exitPerimeter=0;entryX=0;entryY=0.5;entryDx=0;entryDy=0;" edge="1" parent="1" source="iTJKMhDCjFDiyRqTUcVc-46" target="iTJKMhDCjFDiyRqTUcVc-48">
          <mxGeometry relative="1" as="geometry" />
        </mxCell>
        <mxCell id="iTJKMhDCjFDiyRqTUcVc-46" value="Most Recent Model" style="strokeWidth=2;html=1;shape=mxgraph.flowchart.document2;whiteSpace=wrap;size=0.25;" vertex="1" parent="1">
          <mxGeometry x="365" y="970" width="100" height="60" as="geometry" />
        </mxCell>
        <mxCell id="iTJKMhDCjFDiyRqTUcVc-47" style="edgeStyle=orthogonalEdgeStyle;rounded=0;orthogonalLoop=1;jettySize=auto;html=1;exitX=0.5;exitY=1;exitDx=0;exitDy=0;exitPerimeter=0;entryX=0.5;entryY=0;entryDx=0;entryDy=0;entryPerimeter=0;" edge="1" parent="1" source="iTJKMhDCjFDiyRqTUcVc-42" target="iTJKMhDCjFDiyRqTUcVc-46">
          <mxGeometry relative="1" as="geometry" />
        </mxCell>
        <mxCell id="iTJKMhDCjFDiyRqTUcVc-50" style="edgeStyle=orthogonalEdgeStyle;rounded=0;orthogonalLoop=1;jettySize=auto;html=1;exitX=0.5;exitY=0;exitDx=0;exitDy=0;entryX=0.25;entryY=1;entryDx=0;entryDy=0;" edge="1" parent="1" source="iTJKMhDCjFDiyRqTUcVc-48" target="iTJKMhDCjFDiyRqTUcVc-1">
          <mxGeometry relative="1" as="geometry" />
        </mxCell>
        <mxCell id="iTJKMhDCjFDiyRqTUcVc-48" value="Load Model" style="rounded=1;whiteSpace=wrap;html=1;absoluteArcSize=1;arcSize=14;strokeWidth=2;" vertex="1" parent="1">
          <mxGeometry x="500" y="979" width="100" height="41.25" as="geometry" />
        </mxCell>
        <mxCell id="iTJKMhDCjFDiyRqTUcVc-52" value="Show Client as active on website" style="strokeWidth=2;html=1;shape=mxgraph.flowchart.display;whiteSpace=wrap;" vertex="1" parent="1">
          <mxGeometry x="680" y="1000" width="190" height="60" as="geometry" />
        </mxCell>
        <mxCell id="iTJKMhDCjFDiyRqTUcVc-58" style="edgeStyle=orthogonalEdgeStyle;rounded=0;orthogonalLoop=1;jettySize=auto;html=1;exitX=0;exitY=0;exitDx=101;exitDy=0;exitPerimeter=0;" edge="1" parent="1" source="iTJKMhDCjFDiyRqTUcVc-56">
          <mxGeometry relative="1" as="geometry">
            <mxPoint x="960" y="640" as="targetPoint" />
          </mxGeometry>
        </mxCell>
        <mxCell id="iTJKMhDCjFDiyRqTUcVc-56" value="Gradient Update Request" style="html=1;dashed=0;whiteSpace=wrap;shape=mxgraph.dfd.loop" vertex="1" parent="1">
          <mxGeometry x="780" y="620" width="110" height="45" as="geometry" />
        </mxCell>
        <mxCell id="iTJKMhDCjFDiyRqTUcVc-60" style="edgeStyle=orthogonalEdgeStyle;rounded=0;orthogonalLoop=1;jettySize=auto;html=1;exitX=1;exitY=0.5;exitDx=0;exitDy=0;exitPerimeter=0;" edge="1" parent="1" source="iTJKMhDCjFDiyRqTUcVc-59" target="iTJKMhDCjFDiyRqTUcVc-63">
          <mxGeometry relative="1" as="geometry">
            <mxPoint x="1070" y="680" as="targetPoint" />
            <Array as="points">
              <mxPoint x="1080" y="627" />
            </Array>
          </mxGeometry>
        </mxCell>
        <mxCell id="iTJKMhDCjFDiyRqTUcVc-59" value="Delay for sending gradients" style="strokeWidth=2;html=1;shape=mxgraph.flowchart.delay;whiteSpace=wrap;" vertex="1" parent="1">
          <mxGeometry x="960" y="600" width="80" height="55" as="geometry" />
        </mxCell>
        <mxCell id="iTJKMhDCjFDiyRqTUcVc-61" value="DGC Gradients" style="shape=parallelogram;html=1;strokeWidth=2;perimeter=parallelogramPerimeter;whiteSpace=wrap;rounded=1;arcSize=12;size=0.23;" vertex="1" parent="1">
          <mxGeometry x="1220" y="662.5" width="125" height="60" as="geometry" />
        </mxCell>
        <mxCell id="iTJKMhDCjFDiyRqTUcVc-66" style="edgeStyle=orthogonalEdgeStyle;rounded=0;orthogonalLoop=1;jettySize=auto;html=1;exitX=0.5;exitY=1;exitDx=0;exitDy=0;" edge="1" parent="1" source="iTJKMhDCjFDiyRqTUcVc-63">
          <mxGeometry relative="1" as="geometry">
            <mxPoint x="530" y="880" as="targetPoint" />
            <Array as="points">
              <mxPoint x="1110" y="760" />
              <mxPoint x="530" y="760" />
            </Array>
          </mxGeometry>
        </mxCell>
        <mxCell id="iTJKMhDCjFDiyRqTUcVc-63" value="Gradient Averager" style="rounded=1;whiteSpace=wrap;html=1;absoluteArcSize=1;arcSize=14;strokeWidth=2;" vertex="1" parent="1">
          <mxGeometry x="1050" y="682.5" width="110" height="42.5" as="geometry" />
        </mxCell>
        <mxCell id="iTJKMhDCjFDiyRqTUcVc-64" value="" style="verticalLabelPosition=bottom;verticalAlign=top;html=1;strokeWidth=2;shape=mxgraph.arrows2.arrow;dy=0.6;dx=40;notch=0;rotation=-180;" vertex="1" parent="1">
          <mxGeometry x="1170" y="683.75" width="50" height="40" as="geometry" />
        </mxCell>
        <mxCell id="iTJKMhDCjFDiyRqTUcVc-67" value="" style="verticalLabelPosition=bottom;verticalAlign=top;html=1;strokeWidth=2;shape=mxgraph.arrows2.arrow;dy=0.6;dx=40;notch=0;rotation=0;" vertex="1" parent="1">
          <mxGeometry x="520" y="878.13" width="50" height="40" as="geometry" />
        </mxCell>
        <mxCell id="iTJKMhDCjFDiyRqTUcVc-68" value="" style="endArrow=classic;html=1;rounded=0;" edge="1" parent="1">
          <mxGeometry width="50" height="50" relative="1" as="geometry">
            <mxPoint x="1310" y="540" as="sourcePoint" />
            <mxPoint x="1130" y="680" as="targetPoint" />
          </mxGeometry>
        </mxCell>
        <mxCell id="iTJKMhDCjFDiyRqTUcVc-69" value="This includes stats about how many hours simulated etc." style="strokeWidth=2;html=1;shape=mxgraph.flowchart.annotation_1;align=left;pointerEvents=1;" vertex="1" parent="1">
          <mxGeometry x="1310" y="480" width="50" height="100" as="geometry" />
        </mxCell>
        <mxCell id="iTJKMhDCjFDiyRqTUcVc-70" value="" style="endArrow=classic;html=1;rounded=0;" edge="1" parent="1">
          <mxGeometry width="50" height="50" relative="1" as="geometry">
            <mxPoint x="1430" y="547.5" as="sourcePoint" />
            <mxPoint x="1470" y="677.5" as="targetPoint" />
          </mxGeometry>
        </mxCell>
        <mxCell id="iTJKMhDCjFDiyRqTUcVc-71" value="Update on website" style="strokeWidth=2;html=1;shape=mxgraph.flowchart.display;whiteSpace=wrap;" vertex="1" parent="1">
          <mxGeometry x="1410" y="683.75" width="190" height="60" as="geometry" />
        </mxCell>
        <mxCell id="iTJKMhDCjFDiyRqTUcVc-75" style="edgeStyle=orthogonalEdgeStyle;rounded=0;orthogonalLoop=1;jettySize=auto;html=1;exitX=1;exitY=0.5;exitDx=0;exitDy=0;entryX=0;entryY=0.5;entryDx=0;entryDy=0;" edge="1" parent="1" source="iTJKMhDCjFDiyRqTUcVc-72" target="iTJKMhDCjFDiyRqTUcVc-74">
          <mxGeometry relative="1" as="geometry" />
        </mxCell>
        <mxCell id="iTJKMhDCjFDiyRqTUcVc-72" value="Run Sim workers to get rollouts from PPO model" style="rounded=1;whiteSpace=wrap;html=1;absoluteArcSize=1;arcSize=14;strokeWidth=2;" vertex="1" parent="1">
          <mxGeometry x="1060" y="440" width="160" height="30" as="geometry" />
        </mxCell>
        <mxCell id="iTJKMhDCjFDiyRqTUcVc-74" value="Rollouts" style="shape=parallelogram;html=1;strokeWidth=2;perimeter=parallelogramPerimeter;whiteSpace=wrap;rounded=1;arcSize=12;size=0.23;" vertex="1" parent="1">
          <mxGeometry x="1360" y="390" width="100" height="60" as="geometry" />
        </mxCell>
        <mxCell id="iTJKMhDCjFDiyRqTUcVc-76" value="" style="verticalLabelPosition=bottom;verticalAlign=top;html=1;strokeWidth=2;shape=mxgraph.arrows2.arrow;dy=0.6;dx=40;notch=0;" vertex="1" parent="1">
          <mxGeometry x="1460" y="390" width="100" height="70" as="geometry" />
        </mxCell>
        <mxCell id="iTJKMhDCjFDiyRqTUcVc-77" value="Train and Update PPO Model" style="rounded=1;whiteSpace=wrap;html=1;absoluteArcSize=1;arcSize=14;strokeWidth=2;" vertex="1" parent="1">
          <mxGeometry x="1570" y="405" width="160" height="30" as="geometry" />
        </mxCell>
      </root>
    </mxGraphModel>
  </diagram>
</mxfile>
